<svg id="Layer_1" data-name="Layer 1" xmlns="http://www.w3.org/2000/svg" viewBox="0 0 216.2 242.99"><defs><style>.cls-1{fill:#5c8dbc;}.cls-2{fill:#1a4674;}.cls-3{fill:#1b598e;}.cls-4,.cls-5{fill:#fff;}.cls-5{stroke:#fff;stroke-miterlimit:10;stroke-width:3px;}</style></defs><path class="cls-1" d="M436.92,145.73a21.42,21.42,0,0,0-2.64-10.8,20.63,20.63,0,0,0-7.82-7.62q-43.17-24.89-86.37-49.75c-7.75-4.48-15.27-4.31-23,.23-11.46,6.75-68.82,39.62-85.91,49.52-7,4.07-10.46,10.31-10.47,18.41q0,50.07,0,100.13a21.52,21.52,0,0,0,2.53,10.59,20.61,20.61,0,0,0,7.94,7.83c17.09,9.9,74.46,42.76,85.91,49.51,7.7,4.55,15.23,4.71,23,.23q43.15-24.92,86.37-49.75a20.61,20.61,0,0,0,7.94-7.83,21.63,21.63,0,0,0,2.53-10.59s0-66.73,0-100.11" transform="translate(-220.73 -74.29)"/><path class="cls-2" d="M329.16,195.46l-105.9,61a20.61,20.61,0,0,0,7.94,7.83c17.09,9.9,74.46,42.76,85.91,49.51,7.7,4.55,15.23,4.71,23,.23q43.15-24.92,86.37-49.75a20.61,20.61,0,0,0,7.94-7.83l-105.25-61" transform="translate(-220.73 -74.29)"/><path class="cls-2" d="M297.8,213.52a35.74,35.74,0,0,0,62.19-.2l-30.83-17.86L297.8,213.52" transform="translate(-220.73 -74.29)"/><path class="cls-3" d="M436.92,145.73a21.42,21.42,0,0,0-2.64-10.8L329.16,195.46l105.25,61a21.63,21.63,0,0,0,2.53-10.59s0-66.73,0-100.11" transform="translate(-220.73 -74.29)"/><path class="cls-4" d="M360,213.32a35.76,35.76,0,1,1-.23-35.47l31.24-18a71.79,71.79,0,1,0,.19,71.54L360,213.32" transform="translate(-220.73 -74.29)"/><path class="cls-5" d="M380.59,206.53H369.26v-22.4h10.83v1.8h-8.86v8.37h8.22v1.8h-8.22v8.64h9.36Z" transform="translate(-220.73 -74.29)"/><path class="cls-5" d="M396.39,206.53h-2v-22.4h2Z" transform="translate(-220.73 -74.29)"/><path class="cls-5" d="M424.09,185.93h-6.48v20.6h-2v-20.6h-6.46v-1.8h14.9Z" transform="translate(-220.73 -74.29)"/></svg>